<svg width="500" height="500" viewBox="0 0 500 500" fill="none" xmlns="http://www.w3.org/2000/svg">
<g clip-path="url(#clip0_1_2)">
<path d="M250 405V323L447 208.5L503.5 307V504.5H307.5L250 405Z" fill="black" fill-opacity="0.25"/>
<path d="M447 228L432 236.673V387L447 378.327V228Z" fill="#7B24FF"/>
<path d="M373 333V269L250 341L127 269V333L250 405L373 333Z" fill="url(#paint0_linear_1_2)"/>
<path d="M250 94L447 208.5L250 323L53 208.5L250 94Z" fill="url(#paint1_linear_1_2)"/>
<path d="M188.341 182.735C188.341 175.928 193.865 170.404 200.673 170.404H299.327C306.135 170.404 311.659 175.928 311.659 182.735C311.659 189.543 306.135 195.067 299.327 195.067H200.673C193.865 195.067 188.341 189.543 188.341 182.735ZM299.327 219.731H200.673C193.865 219.731 188.341 225.256 188.341 232.063C188.341 238.87 193.865 244.395 200.673 244.395H299.327C306.135 244.395 311.659 238.87 311.659 232.063C311.659 225.256 306.135 219.731 299.327 219.731Z" fill="url(#paint2_linear_1_2)"/>
</g>
<defs>
<linearGradient id="paint0_linear_1_2" x1="374.471" y1="333.489" x2="125.661" y2="332.874" gradientUnits="userSpaceOnUse">
<stop offset="0.5" stop-color="#7B24FF"/>
<stop offset="0.5001"/>
</linearGradient>
<linearGradient id="paint1_linear_1_2" x1="447.073" y1="208.732" x2="53.1155" y2="208.732" gradientUnits="userSpaceOnUse">
<stop offset="0.5" stop-color="#7B24FF"/>
<stop offset="0.5001"/>
</linearGradient>
<linearGradient id="paint2_linear_1_2" x1="187.884" y1="207.399" x2="312.116" y2="207.399" gradientUnits="userSpaceOnUse">
<stop offset="0.5" stop-color="white"/>
<stop offset="0.5"/>
</linearGradient>
<clipPath id="clip0_1_2">
<rect width="500" height="500" fill="white"/>
</clipPath>
</defs>
</svg>
